<?xml version="1.0" encoding="utf-8"?>
<!-- Generator: Adobe Illustrator 15.0.2, SVG Export Plug-In . SVG Version: 6.00 Build 0)  -->
<!DOCTYPE svg PUBLIC "-//W3C//DTD SVG 1.1//EN" "http://www.w3.org/Graphics/SVG/1.1/DTD/svg11.dtd">
<svg version="1.1" id="Layer_1" xmlns="http://www.w3.org/2000/svg" xmlns:xlink="http://www.w3.org/1999/xlink" x="0px" y="0px"
	 width="432px" height="173.069px" viewBox="0 0 432 173.069" enable-background="new 0 0 432 173.069" xml:space="preserve">
<g>
	<g>
		<path fill="#6A2C91" d="M37.396,45.55c5.088,0,9.21-4.125,9.21-9.213c0-5.086-4.122-9.208-9.21-9.208
			c-5.082,0-9.205,4.122-9.205,9.208C28.191,41.425,32.313,45.55,37.396,45.55z"/>
		<path fill="#6A2C91" d="M143.919,45.55c5.086,0,9.211-4.125,9.211-9.213c0-5.086-4.125-9.208-9.211-9.208
			c-5.082,0-9.204,4.122-9.204,9.208C134.715,41.425,138.837,45.55,143.919,45.55z"/>
		<path fill="#00A5B8" d="M170.753,12.625c0-3.521-0.546-7.083-6.372-6.375c-5.832,0.709,3.07,45.537-23.852,53.867
			c-14.259-31.45-35.406-33.788-49.691-33.788c-14.281,0-35.403,2.338-49.665,33.788C18.323,52.627,21.285,6.959,15.459,6.25
			c-5.826-0.708-6.38,2.854-6.38,6.375c9.084,84.268,40.661,106.912,81.772,106.912C131.965,119.537,177.191,80.135,170.753,12.625z
			 M96.982,105.496c-2.759-6.108-4.127-9.382,12.118-28.919c0,0,5.422-6.543,1.649-9.136c-3.767-2.596-9.062,12.561-19.898,12.561
			c-10.839,0-16.128-15.156-19.896-12.561c-3.773,2.593,1.646,9.136,1.646,9.136c14.956,17.983,13.376,24.569,10.971,28.919
			c-9.599,0-30.938-14.453-27.528-38.502c1.841-12.943,14.79-29.186,34.817-29.186c20.027,0,31.438,15.156,33.839,27.471
			C129.479,89.781,106.811,105.496,96.982,105.496z"/>
		<path fill="#6A2C91" d="M90.868,61.401L90.868,61.401h-0.018h-0.012l0,0c-3.584,0.025-6.489,2.93-6.489,6.514
			c0,3.59,2.904,6.495,6.489,6.512v0.009l0.012-0.009l0.018,0.009v-0.009c3.584-0.017,6.48-2.921,6.48-6.512
			C97.349,64.331,94.453,61.426,90.868,61.401z"/>
	</g>
	<path fill="#010C03" d="M232.685,49.94c-0.829,0-1.078,0.188-1.452,1.77c-1.274,4.617-1.593,6.069-1.593,7.146
		c0,1.26,0.693,1.832,1.841,2.09c1.072,0.251,1.895,0.377,1.895,1.26c0,0.758-0.375,0.952-1.2,0.952
		c-1.077,0-2.343-0.257-3.733-0.257c-1.52,0-2.846,0.257-3.794,0.257c-0.768,0-1.02-0.383-1.02-1.018
		c0-0.629,0.516-0.886,1.146-1.137c0.693-0.252,1.449-0.567,1.769-1.578c1.642-5.123,5.445-20.176,8.479-32.319
		c0.255-0.946,0.445-1.898,0.63-2.784c0.258-1.075,0.635-1.387,2.852-1.387c2.021,0,2.529,0.186,2.843,1.321
		c3.355,11.386,6.644,22.706,9.996,34.028c0.444,1.643,1.2,2.467,1.896,2.788c0.697,0.374,1.456,0.5,1.456,1.194
		c0,0.826-0.826,0.892-1.965,0.892c-1.836,0-3.479-0.257-5.309-0.257c-1.965,0-3.858,0.257-5.627,0.257
		c-1.522,0-1.842-0.257-1.842-1.018c0-0.694,0.636-1.068,1.455-1.194c0.759-0.195,1.461-0.51,1.461-1.455
		c0-0.953-0.764-3.417-1.962-7.718c-0.383-1.521-0.696-1.833-1.455-1.833H232.685z M238.314,47.66c0.945,0,1.071-0.381,1.071-0.755
		c0-0.32-0.126-0.703-0.252-1.332c-0.573-2.018-1.396-4.805-2.339-8.41c-0.568-1.838-0.697-2.281-1.077-2.281
		c-0.442,0-0.568,0.383-1.14,3.041c-1.077,4.485-1.648,6.704-1.894,7.839c-0.193,0.886-0.258,1.266-0.258,1.454
		c0,0.255,0.064,0.444,0.884,0.444H238.314z"/>
	<path fill="#010C03" d="M259.249,26.346c0-1.767-0.381-2.153-1.587-2.401c-1.33-0.314-1.71-0.449-1.71-1.075
		c0-0.761,0.447-1.012,1.777-1.266c2.655-0.698,4.991-1.456,6.959-2.21c1.01-0.384,1.643-0.704,1.956-0.704
		c0.57,0,0.635,0.761,0.635,1.961v37.947c0,1.518,0.375,2.027,2.144,2.405c0.697,0.125,1.394,0.383,1.394,1.137
		c0,0.761-0.758,1.018-1.52,1.018c-0.816,0-1.385-0.257-6.002-0.257c-4.494,0-5.062,0.257-5.888,0.257
		c-0.756,0-1.575-0.194-1.575-1.018c0-0.694,0.693-1.012,1.326-1.137c1.83-0.315,2.091-1.013,2.091-2.59V26.346z"/>
	<path fill="#010C03" d="M277.076,26.346c0-1.767-0.375-2.153-1.578-2.401c-1.329-0.314-1.713-0.449-1.713-1.075
		c0-0.761,0.445-1.012,1.771-1.266c2.664-0.698,4.998-1.456,6.957-2.21c1.013-0.384,1.648-0.704,1.961-0.704
		c0.571,0,0.636,0.761,0.636,1.961v37.947c0,1.518,0.378,2.027,2.149,2.405c0.69,0.125,1.396,0.383,1.396,1.137
		c0,0.761-0.762,1.018-1.522,1.018c-0.823,0-1.388-0.257-6.008-0.257c-4.495,0-5.057,0.257-5.88,0.257
		c-0.758,0-1.581-0.194-1.581-1.018c0-0.694,0.697-1.012,1.323-1.137c1.839-0.315,2.088-1.013,2.088-2.59V26.346z"/>
	<path fill="#010C03" d="M294.916,41.525c0-1.961-0.448-2.407-1.903-2.715c-1.077-0.252-1.391-0.509-1.391-1.081
		c0-0.761,0.571-0.943,2.345-1.389c2.463-0.698,4.737-1.584,6.825-2.339c0.825-0.32,1.396-0.572,1.584-0.572
		c0.504,0,0.565,0.377,0.565,1.39v3.293v19.792c0,2.149,0.132,2.598,1.961,3.099c1.075,0.32,1.396,0.443,1.396,1.263
		c0,0.575-0.321,0.892-1.268,0.892c-1.895,0-3.858-0.257-6.011-0.257c-2.403,0-4.359,0.257-6.128,0.257
		c-0.822,0-1.332-0.317-1.332-0.952c0-0.695,0.319-0.952,1.197-1.203c1.903-0.441,2.158-0.635,2.158-2.974V41.525z M299.021,30.331
		c-2.339,0-4.298-2.082-4.298-4.868c0-2.788,1.959-4.932,4.359-4.932c2.535,0,4.433,2.144,4.433,4.932
		c0,2.787-1.897,4.868-4.433,4.868H299.021z"/>
	<path fill="#010C03" d="M325.201,38.741c0-2.273-0.758-3.225-2.084-3.225c-2.085,0-3.229,2.027-3.991,4.428
		c-0.752,2.279-2.143,3.794-3.476,4.554c-0.884,0.566-1.765,0.826-2.652,0.826c-1.71,0-2.406-0.634-2.406-2.347
		c0-4.299,5.756-9.548,13.983-9.548c3.03,0,5.124,0.315,6.45,1.138c1.704,1.009,2.21,2.596,2.21,4.617v17.457
		c0,1.207,0.445,1.898,1.455,1.898c0.955,0,1.394-0.38,1.707-0.826c0.322-0.5,0.442-1.009,0.823-1.009
		c0.509,0,0.57,0.441,0.57,1.144c0,1.956-2.529,5.88-6.64,5.88c-2.911,0-3.985-2.027-4.62-3.291
		c-0.316-0.509-0.568-0.886-0.888-0.886c-0.501,0-1.578,1.138-3.159,2.213c-1.517,1.012-3.481,2.024-5.946,2.024
		c-3.353,0-5.879-2.216-5.879-6.075c0-3.224,1.704-6.131,7.844-9.425c1.894-1.072,3.227-1.704,4.298-2.27
		c1.707-0.887,2.4-1.521,2.4-2.913V38.741z M318.877,56.258c0,2.156,0.829,3.233,2.53,3.233c1.077,0,2.026-0.509,2.784-1.396
		c0.762-0.757,1.01-1.518,1.01-2.655v-7.272c0-0.634-0.123-0.754-0.441-0.754c-0.316,0-0.636,0.183-1.137,0.56
		c-1.013,0.7-2.025,1.71-2.849,2.913c-1.136,1.58-1.897,3.35-1.897,5.308V56.258z"/>
	<path fill="#010C03" d="M343.167,41.525c0-2.024-0.319-2.407-1.584-2.59c-1.326-0.257-1.64-0.377-1.64-1.012
		c0-0.955,0.816-0.955,3.414-1.646c2.846-0.887,4.55-1.71,5.627-2.213c0.946-0.383,1.329-0.635,1.581-0.635
		c0.439,0,0.571,0.761,0.571,1.521v2.338c0.064,0.761,0.126,1.013,0.313,1.013c0.632,0,1.52-1.138,2.913-2.213
		c1.388-1.138,3.227-2.282,5.688-2.282c2.407,0,4.236,0.761,5.565,2.087c1.327,1.452,2.026,3.608,2.026,6.072v17.018
		c0,1.895,1.2,1.964,2.208,2.272c0.702,0.131,1.016,0.317,1.016,0.886c0,0.761-0.439,1.018-1.71,1.018
		c-0.945,0-3.162-0.257-5.624-0.257c-2.594,0-4.05,0.257-5.191,0.257c-0.819,0-1.194-0.257-1.194-1.078
		c0-0.254,0.249-0.509,0.626-0.694c0.949-0.44,1.836-0.698,1.836-1.835V42.977c0-1.195-0.254-2.272-0.761-2.967
		c-0.633-1.012-1.578-1.521-2.781-1.521c-1.204,0-2.466,0.377-3.35,1.144c-0.885,0.754-1.517,1.769-1.517,2.904v16.889
		c0,1.077,0.758,1.452,1.707,1.898c0.822,0.249,1.013,0.314,1.013,0.757c0,0.884-0.51,1.078-1.142,1.078
		c-0.697,0-1.704-0.257-5.376-0.257c-4.236,0-4.743,0.257-6.072,0.257c-0.758,0-1.326-0.383-1.326-1.018
		c0-0.694,0.568-1.012,1.271-1.137c1.634-0.189,1.892-0.95,1.892-2.782V41.525z"/>
	<path fill="#010C03" d="M374.472,49.621c0-9.551,6.201-16.191,14.106-16.191c2.087,0,4.553,0.44,5.946,1.453
		c1.265,0.828,1.391,1.206,1.449,2.721c0.067,0.824,0.067,1.646,0.067,2.53c0,0.952-0.067,1.895-0.19,2.467
		c-0.188,1.329-0.696,1.647-1.707,1.647c-1.517,0-1.9-2.219-2.723-4.746c-0.694-2.087-1.452-3.479-3.101-3.479
		c-2.781,0-5.244,4.617-5.244,11.194c0,8.79,3.159,12.209,6.573,12.209c2.091,0,3.423-1.33,4.365-2.911
		c0.697-1.263,1.14-2.526,1.774-2.526c0.627,0,0.882,0.628,0.882,1.069c0,3.164-2.902,8.73-9.929,8.73
		c-7.521,0-12.271-5.692-12.271-14.104V49.621z"/>
	<path fill="#010C03" d="M411.09,47.471c-1.268,0-1.707,0.629-1.707,1.835c0,4.808,2.275,10.186,6.453,10.186
		c2.904,0,4.296-1.644,5.118-3.417c0.51-1.017,0.823-1.772,1.326-1.772c0.574,0,0.952,0.314,0.952,1.264
		c0,0.691-0.378,2.086-1.134,3.479c-1.455,2.526-4.371,4.742-8.918,4.742c-7.595,0-12.399-6.449-12.399-14.482
		c0-10.122,5.314-15.876,12.587-15.876c5.946,0,10.118,3.916,10.118,10.562c0,3.096-0.189,3.479-2.468,3.479H411.09z M409.447,43.36
		c0,1.33,0.249,1.898,1.769,1.898c1.078,0,1.9-0.251,2.662-0.568c1.388-0.512,2.333-1.396,2.655-2.215
		c0.311-0.572,0.501-1.269,0.501-2.212c0-2.659-1.198-4.429-3.03-4.429c-3.043,0-4.557,4.363-4.557,7.461V43.36z"/>
	<path fill="#00A5B8" d="M175.693,81.445c0-1.77-1.583-1.704-2.53-2.213c-0.761-0.251-1.204-0.377-1.204-0.952
		c0-0.629,0.38-1.069,1.898-1.069c1.835,0,4.995,0.249,11.449,0.249c3.985,0,8.599-0.249,11.003-0.249
		c1.201,0,1.581,0.249,1.581,1.895v8.856c0,0.887-0.251,1.327-0.887,1.327c-0.757,0-1.326-0.761-1.709-1.646
		c-0.377-0.944-0.692-1.83-0.946-2.596c-1.135-3.159-2.53-5.566-6.641-5.566c-1.2,0-2.086,0.194-2.529,0.509
		c-0.506,0.195-0.695,0.76-0.695,1.455V94.16c0,0.76,0.315,0.886,1.835,0.886c2.973,0,3.857-0.886,4.363-2.917
		c0.565-2.271,0.634-2.714,1.452-2.714c0.634,0,0.954,0.316,0.954,1.703c0,1.778-0.257,3.608-0.257,5.254
		c0,1.898,0.257,4.236,0.257,6.009c0,0.949-0.383,1.326-1.014,1.326c-0.635,0-0.884-0.566-1.327-2.338
		c-0.763-3.293-1.709-4.043-3.925-4.043c-1.961,0-2.338,0.185-2.338,0.818v14.103c0,2.02,1.075,2.785,3.794,2.785
		c4.81,0,6.514-2.663,7.843-7.844c0.506-2.028,0.949-2.529,1.644-2.529c0.38,0,0.635,0,0.823,0.317
		c0.255,0.568,0.381,1.897,0.381,5.306c0,2.664,0,4.301-0.066,5.254c-0.06,1.646-0.569,1.772-1.641,1.772
		c-4.368,0-9.233-0.252-13.599-0.252c-3.987,0-7.34,0.252-9.933,0.252c-1.452,0-1.961-0.252-1.961-1.203
		c0-0.636,0.383-0.953,1.584-1.203c1.769-0.378,2.341-1.076,2.341-2.655V81.445z M181.824,74.735c-0.314,0-0.631-0.314-0.631-0.749
		c0-0.446,0.76-1.207,1.077-1.647l6.45-6.957c1.389-1.581,2.526-2.533,4.236-2.533c1.329,0,2.404,1.014,2.404,2.338
		c0,1.329-0.946,2.473-2.467,3.359l-8.221,4.868c-1.327,0.761-2.213,1.32-2.782,1.32H181.824z"/>
	<path fill="#00A5B8" d="M227.748,111.611c0,1.144,0.185,1.587,0.632,1.587c1.143,0,1.52-2.407,2.278-2.407
		c0.507,0,0.635,0.703,0.635,1.578c0,1.207-0.061,2.155-1.271,2.783c-0.5,0.258-2.403,0.886-3.411,1.27
		c-2.087,0.692-4.307,1.521-4.938,1.521c-0.697,0-0.762-0.704-0.888-1.588c-0.12-1.322-0.188-2.145-0.632-2.145
		c-0.378,0-1.069,0.886-2.27,1.896c-1.082,0.951-2.603,1.837-4.624,1.837c-5.823,0-9.488-5.812-9.488-14.612
		c0-8.914,4.808-15.751,10.497-15.751c1.898,0,3.23,0.571,4.051,1.075c0.57,0.317,0.89,0.635,1.016,0.635
		c0.375,0,0.375-0.252,0.375-0.635v-8.153c0-1.772-0.375-2.155-1.514-2.407c-1.395-0.318-1.775-0.444-1.775-1.078
		c0-0.818,0.506-0.943,1.96-1.261c2.468-0.7,4.811-1.455,6.646-2.155c1.459-0.5,2.023-0.752,2.34-0.752
		c0.381,0,0.381,0.566,0.381,1.512V111.611z M212.375,102.187c0,8.038,1.895,11.076,4.553,11.076c0.695,0,1.454-0.19,1.963-0.634
		c0.507-0.443,0.82-1.135,0.82-2.089V94.604c0-1.14-0.252-2.091-0.759-2.851c-0.506-0.635-1.203-1.012-2.15-1.012
		c-1.898,0-4.428,2.34-4.428,11.388V102.187z"/>
	<path fill="#00A5B8" d="M245.204,109.403c0,2.65,1.329,3.726,3.797,3.726c1.329,0,2.72-0.626,3.666-1.635
		c0.57-0.703,0.951-1.59,0.951-2.532V93.207c0-2.021-0.258-2.53-1.394-2.782c-1.01-0.184-1.581-0.25-1.581-1.203
		c0-0.751,0.762-1.007,1.707-1.007c0.887,0,2.278,0.188,3.675,0.188c1.329,0,2.655-0.188,4.359-0.188
		c0.693,0,1.268,0.256,1.268,1.391v2.403v18.531c0,1.646,0.759,2.341,1.892,2.463c0.825,0.126,1.145,0.377,1.145,0.955
		c-0.126,0.76-0.378,0.76-2.849,1.512c-3.607,1.204-5.624,1.895-6.638,2.278c-0.509,0.126-0.828,0.194-1.016,0.194
		c-0.252,0-0.442-0.194-0.442-1.018v-2.91c0-0.69-0.126-0.816-0.384-0.816c-0.242,0-0.564,0.182-0.945,0.565
		c-1.326,1.206-3.604,3.797-7.524,3.797c-2.088,0-3.985-0.504-5.314-1.648c-1.455-1.194-2.397-3.098-2.397-5.437V92.261
		c0-1.268-0.703-1.643-1.651-1.769c-0.946-0.126-1.455-0.443-1.455-1.203c0-0.503,0.383-1.074,1.139-1.074
		c1.52,0,3.104,0.188,4.623,0.188c1.133,0,3.54-0.188,4.362-0.188c0.756,0,1.008,0.439,1.008,2.026V109.403z"/>
	<path fill="#00A5B8" d="M268.48,103.776c0-9.56,6.195-16.197,14.109-16.197c2.087,0,4.547,0.449,5.94,1.458
		c1.262,0.82,1.394,1.204,1.452,2.716c0.067,0.829,0.067,1.647,0.067,2.533c0,0.951-0.067,1.896-0.193,2.463
		c-0.19,1.327-0.694,1.647-1.707,1.647c-1.52,0-1.897-2.215-2.72-4.745c-0.694-2.081-1.452-3.477-3.098-3.477
		c-2.784,0-5.25,4.619-5.25,11.194c0,8.787,3.159,12.207,6.582,12.207c2.088,0,3.411-1.329,4.359-2.911
		c0.697-1.262,1.139-2.529,1.769-2.529c0.636,0,0.887,0.634,0.887,1.077c0,3.156-2.907,8.729-9.928,8.729
		c-7.527,0-12.271-5.695-12.271-14.11V103.776z"/>
	<path fill="#00A5B8" d="M310.158,92.896c0-2.278-0.758-3.226-2.091-3.226c-2.09,0-3.224,2.025-3.981,4.429
		c-0.756,2.272-2.149,3.793-3.476,4.547c-0.887,0.566-1.774,0.824-2.658,0.824c-1.704,0-2.401-0.634-2.401-2.338
		c0-4.303,5.751-9.554,13.978-9.554c3.036,0,5.115,0.323,6.444,1.144c1.71,1.009,2.217,2.59,2.217,4.61v17.458
		c0,1.204,0.445,1.897,1.458,1.897c0.945,0,1.385-0.378,1.704-0.819c0.313-0.51,0.445-1.011,0.825-1.011
		c0.507,0,0.568,0.441,0.568,1.137c0,1.963-2.532,5.879-6.644,5.879c-2.904,0-3.984-2.021-4.611-3.291
		c-0.322-0.499-0.574-0.881-0.893-0.881c-0.501,0-1.578,1.142-3.156,2.21c-1.52,1.013-3.481,2.03-5.949,2.03
		c-3.353,0-5.88-2.212-5.88-6.073c0-3.226,1.71-6.139,7.838-9.422c1.903-1.078,3.224-1.713,4.299-2.281
		c1.712-0.884,2.409-1.52,2.409-2.907V92.896z M303.834,110.414c0,2.148,0.823,3.224,2.529,3.224c1.078,0,2.021-0.509,2.782-1.391
		c0.761-0.753,1.013-1.515,1.013-2.656v-7.27c0-0.636-0.126-0.762-0.442-0.762c-0.315,0-0.635,0.187-1.136,0.569
		c-1.013,0.693-2.026,1.703-2.852,2.915c-1.133,1.572-1.895,3.344-1.895,5.307V110.414z"/>
	<path fill="#00A5B8" d="M336.345,109.722c0,2.647,0.756,3.407,2.082,3.407c1.08,0,1.71-0.76,2.155-1.383
		c0.38-0.703,0.755-1.396,1.329-1.396c0.438,0,0.69,0.314,0.69,0.949c0,1.455-2.213,6.574-8.096,6.574
		c-2.02,0-3.601-0.565-4.611-1.704c-1.08-1.2-1.587-2.907-1.587-5.06V92.447c0-0.625-0.38-0.877-0.884-0.946
		c-0.378-0.062-1.071-0.062-1.578-0.062c-0.507-0.063-0.945-0.187-0.945-0.82c0-0.512,0.31-0.887,1.385-1.713
		c3.224-2.338,4.934-3.918,7.97-8.404c0.635-1.021,1.013-1.586,1.394-1.586c0.377,0,0.755,0.131,0.755,1.138v7.08
		c0,0.956,0.316,1.338,1.271,1.338h3.35c0.949,0,1.137,0.252,1.137,1.326c0,1.196-0.123,1.455-1.263,1.455h-3.168
		c-1.068,0-1.385,0.375-1.385,1.513V109.722z"/>
	<path fill="#00A5B8" d="M348.232,95.672c0-1.956-0.442-2.397-1.897-2.716c-1.074-0.248-1.394-0.509-1.394-1.069
		c0-0.769,0.57-0.952,2.336-1.395c2.478-0.695,4.746-1.587,6.837-2.342c0.822-0.314,1.394-0.571,1.581-0.571
		c0.507,0,0.573,0.383,0.573,1.393v3.289v19.793c0,2.156,0.123,2.597,1.956,3.099c1.072,0.317,1.391,0.443,1.391,1.27
		c0,0.566-0.318,0.887-1.262,0.887c-1.9,0-3.855-0.252-6.011-0.252c-2.4,0-4.368,0.252-6.134,0.252c-0.823,0-1.332-0.32-1.332-0.954
		c0-0.687,0.322-0.944,1.203-1.202c1.895-0.435,2.152-0.628,2.152-2.967V95.672z"/>
	<path fill="#00A5B8" d="M376.375,117.942c-7.718,0-12.971-6.583-12.971-15.188c0-8.595,5.253-15.176,13.032-15.176
		c7.712,0,13.028,6.581,13.028,15.176c0,8.604-5.316,15.188-13.028,15.188H376.375z M376.813,115.854
		c2.975,0,4.047-5.313,4.047-11.387c0-8.408-1.704-14.796-4.802-14.796c-2.972,0-4.111,5.308-4.111,11.381
		c0,8.413,1.763,14.802,4.802,14.802H376.813z"/>
	<path fill="#00A5B8" d="M396.486,95.672c0-2.021-0.322-2.397-1.581-2.591c-1.329-0.251-1.643-0.373-1.643-1.008
		c0-0.955,0.822-0.955,3.411-1.648c2.849-0.884,4.556-1.702,5.633-2.21c0.942-0.379,1.326-0.636,1.578-0.636
		c0.445,0,0.568,0.766,0.568,1.525v2.334c0.062,0.758,0.126,1.009,0.315,1.009c0.636,0,1.517-1.135,2.911-2.206
		c1.394-1.137,3.224-2.279,5.691-2.279c2.403,0,4.239,0.761,5.565,2.087c1.327,1.452,2.023,3.603,2.023,6.071v17.009
		c0,1.903,1.2,1.967,2.22,2.281c0.696,0.126,1.004,0.32,1.004,0.886c0,0.761-0.439,1.013-1.701,1.013
		c-0.957,0-3.162-0.252-5.633-0.252c-2.595,0-4.041,0.252-5.188,0.252c-0.819,0-1.197-0.252-1.197-1.077
		c0-0.252,0.252-0.501,0.635-0.695c0.943-0.44,1.833-0.692,1.833-1.834V97.133c0-1.2-0.258-2.28-0.758-2.973
		c-0.636-1.012-1.59-1.521-2.785-1.521c-1.2,0-2.471,0.384-3.352,1.144c-0.888,0.754-1.522,1.772-1.522,2.91v16.884
		c0,1.074,0.758,1.456,1.709,1.894c0.826,0.261,1.017,0.318,1.017,0.762c0,0.883-0.507,1.077-1.142,1.077
		c-0.694,0-1.707-0.252-5.376-0.252c-4.236,0-4.746,0.252-6.078,0.252c-0.756,0-1.323-0.384-1.323-1.013
		c0-0.7,0.567-1.012,1.268-1.144c1.646-0.183,1.897-0.942,1.897-2.783V95.672z"/>
	<path fill="#6A2C91" d="M352.343,84.486c-2.339,0-4.298-2.09-4.298-4.872c0-2.79,1.959-4.936,4.365-4.936
		c2.526,0,4.427,2.146,4.427,4.936c0,2.782-1.9,4.872-4.427,4.872H352.343z"/>
	<g>
		<path fill="#010C03" d="M187.981,155.624c0,0.835-0.188,1.026-0.683,1.332c-0.837,0.646-3.007,1.219-4.871,1.219
			c-5.671,0-9.59-4.912-9.59-12.483c0-7.384,3.69-12.558,9.59-12.558c2.13,0,4.07,0.724,4.643,1.062
			c0.34,0.229,0.417,0.307,0.454,1.258c0.04,0.646,0.04,1.75,0.04,3.465c0,1.52-0.077,1.634-0.42,1.634
			c-0.494,0-0.683-0.415-1.218-2.131c-0.837-2.587-2.055-4.226-3.881-4.226c-2.396,0-5.06,3.049-5.06,11.037
			c0,8.905,2.815,11.874,5.479,11.874c2.358,0,3.425-2.284,3.956-4.834c0.38-1.825,0.458-2.51,0.915-2.51
			c0.417,0,0.646,0.075,0.646,1.178V155.624z"/>
		<path fill="#010C03" d="M197.875,158.061c-4.148,0-6.964-4.15-6.964-9.096c0-4.948,2.816-9.097,7-9.097
			c4.225,0,7.041,4.148,7.041,9.097c0,4.945-2.816,9.096-7.041,9.096H197.875z M198.027,156.993c2.397,0,3.464-3.918,3.464-7.649
			c0-4.262-1.181-8.41-3.653-8.41c-2.436,0-3.502,3.921-3.502,7.65c0,4.262,1.217,8.409,3.653,8.409H198.027z"/>
		<path fill="#010C03" d="M216.484,143.294c0-1.791-0.494-2.36-1.486-2.36c-1.75,0-2.587,1.41-3.119,3.273
			c-0.266,0.835-0.723,1.484-1.254,1.903c-0.458,0.341-0.952,0.532-1.524,0.532c-0.761,0-1.066-0.269-1.066-1.028
			c0-2.244,3.236-5.746,7.878-5.746c1.447,0,2.358,0.191,2.931,0.685c0.609,0.459,0.838,1.219,0.838,2.246v11.416
			c0,0.951,0.343,1.37,0.986,1.37c0.688,0,0.99-0.343,1.143-0.721c0.189-0.384,0.269-0.764,0.535-0.764
			c0.229,0,0.302,0.191,0.302,0.649c0,0.835-1.062,3.194-3.385,3.194c-1.637,0-2.056-1.294-2.324-2.055
			c-0.111-0.305-0.226-0.533-0.417-0.533c-0.306,0-0.875,0.726-1.79,1.408c-0.837,0.684-1.978,1.296-3.499,1.296
			c-1.752,0-3.044-1.219-3.044-3.466c0-1.902,1.026-3.235,4.222-5.328c1.295-0.835,2.169-1.369,2.778-1.824
			c0.99-0.612,1.295-0.991,1.295-1.828V143.294z M211.536,153.986c0,1.409,0.723,2.13,1.79,2.13c0.797,0,1.483-0.455,2.207-1.141
			c0.683-0.684,0.952-1.18,0.952-2.13v-4.225c0-0.418-0.077-0.495-0.269-0.495c-0.189,0-0.38,0.037-0.875,0.42
			c-0.797,0.533-1.561,1.179-2.129,1.824c-1.029,1.065-1.676,2.247-1.676,3.579V153.986z"/>
		<path fill="#010C03" d="M224.129,149.574c0-5.637,3.309-9.706,7.765-9.706c0.986,0,2.17,0.155,2.966,0.608
			c0.914,0.495,0.952,0.649,0.952,1.639c0,0.572,0.041,0.988,0.041,1.446c0,0.376-0.079,0.988-0.114,1.332
			c-0.114,0.76-0.381,0.874-0.917,0.874c-0.644,0-0.758-0.913-1.367-2.55c-0.495-1.332-0.951-1.979-2.056-1.979
			c-2.131,0-3.847,2.854-3.847,6.924c0,5.633,1.906,7.805,4.189,7.805c1.367,0,2.284-0.572,3.004-1.715
			c0.498-0.835,0.8-1.865,1.107-1.865c0.266,0,0.415,0.229,0.415,0.532c0,2.056-1.827,5.141-5.557,5.141
			c-4.07,0-6.582-3.425-6.582-8.451V149.574z"/>
		<path fill="#010C03" d="M240.455,134.503c0-0.724-0.193-0.953-1.028-1.104c-0.685-0.15-0.913-0.191-0.913-0.534
			c0-0.377,0.267-0.417,1.065-0.646c1.599-0.53,2.437-0.911,2.966-1.14c0.495-0.228,0.647-0.344,0.876-0.344
			c0.155,0,0.229,0.152,0.229,0.687v10.845c0,0.229,0.079,0.34,0.228,0.34c0.152,0,0.308-0.111,0.46-0.226
			c0.838-0.763,2.284-2.283,4.45-2.283c2.398,0,4.302,1.561,4.415,4.567v10.426c0,1.104,0.419,1.522,1.178,1.638
			c0.649,0.114,0.878,0.229,0.878,0.532c0,0.342-0.27,0.456-0.57,0.456c-0.193,0-1.219-0.153-3.008-0.153
			c-2.017,0-2.436,0.153-2.854,0.153c-0.456,0-0.685-0.114-0.685-0.497c0-0.302,0.229-0.377,0.608-0.454
			c0.876-0.19,1.257-0.457,1.257-1.294v-10.389c0-0.914-0.231-1.635-0.647-2.133c-0.495-0.605-1.218-0.912-2.17-0.912
			c-0.875,0-1.786,0.381-2.474,0.952c-0.645,0.572-1.065,1.332-1.065,2.166v10.126c0,0.835,0.421,1.255,1.484,1.483
			c0.57,0.114,0.685,0.229,0.685,0.495c0,0.342-0.267,0.456-0.57,0.456c-0.305,0-0.683-0.153-3.312-0.153
			c-1.977,0-2.319,0.153-2.893,0.153c-0.302,0-0.568-0.153-0.568-0.497c0-0.302,0.267-0.491,0.608-0.568
			c1.143-0.114,1.371-0.495,1.371-1.866V134.503z"/>
		<path fill="#010C03" d="M259.556,144.207c0-0.989-0.266-1.258-1.408-1.52c-0.38-0.082-0.532-0.229-0.532-0.458
			c0-0.307,0.304-0.458,1.218-0.76c1.215-0.384,2.132-0.879,2.893-1.218c0.343-0.229,0.609-0.384,0.724-0.384
			c0.228,0,0.304,0.155,0.304,0.57v1.827v12.484c0,1.14,0.038,1.634,1.292,1.9c0.688,0.191,0.916,0.267,0.916,0.609
			c0,0.303-0.152,0.456-0.647,0.456c-0.723,0-1.408-0.153-3.159-0.153c-1.826,0-2.55,0.153-3.159,0.153
			c-0.342,0-0.57-0.153-0.57-0.456c0-0.304,0.152-0.495,0.685-0.609c1.295-0.229,1.446-0.381,1.446-1.752V144.207z M261.154,137.587
			c-0.951,0-1.788-0.801-1.788-2.247c0-1.482,0.837-2.283,1.826-2.283c1.025,0,1.865,0.801,1.865,2.283
			c0,1.446-0.84,2.247-1.865,2.247H261.154z"/>
		<path fill="#010C03" d="M269.106,144.207c0-1.104-0.19-1.258-1.065-1.332c-0.683-0.076-0.875-0.154-0.875-0.457
			s0.345-0.419,1.218-0.723c1.411-0.533,2.286-1.066,2.816-1.443c0.343-0.229,0.536-0.384,0.685-0.384
			c0.19,0,0.267,0.303,0.267,0.646v1.484c0.038,0.573,0.079,0.647,0.19,0.647c0.343,0,0.914-0.609,1.751-1.258
			c0.838-0.605,1.941-1.292,3.347-1.292c1.218,0,2.321,0.38,3.124,1.18c0.758,0.761,1.253,1.901,1.294,3.388v10.426
			c0,1.218,0.454,1.522,1.139,1.638c0.724,0.075,0.955,0.189,0.955,0.532c0,0.342-0.267,0.456-0.724,0.456
			c-0.267,0-1.104-0.153-3.01-0.153c-1.789,0-2.283,0.153-2.778,0.153c-0.454,0-0.645-0.114-0.645-0.497
			c0-0.226,0.229-0.377,0.609-0.454c0.875-0.19,1.253-0.42,1.253-1.294v-10.389c0-0.875-0.229-1.599-0.644-2.093
			c-0.495-0.646-1.219-0.952-2.132-0.952c-0.876,0-1.827,0.343-2.474,0.912c-0.647,0.572-1.104,1.332-1.104,2.173v10.349
			c0,0.799,0.267,1.065,1.028,1.257c0.989,0.189,1.142,0.189,1.142,0.532c0,0.342-0.267,0.456-0.571,0.456s-0.799-0.153-3.232-0.153
			c-2.02,0-2.321,0.153-2.857,0.153c-0.454,0-0.723-0.189-0.723-0.497c0-0.302,0.269-0.491,0.608-0.568
			c1.18-0.114,1.408-0.495,1.408-1.866V144.207z"/>
		<path fill="#010C03" d="M287.146,145.729c0-2.93,2.128-5.86,5.63-5.86c1.142,0,2.094,0.417,2.854,0.837
			c0.381,0.192,0.8,0.307,1.408,0.307h2.018c0.762,0,1.218,0.15,1.218,0.798c0,0.57-0.114,0.796-0.875,0.796h-0.876
			c-0.38,0-0.646,0-0.646,0.155c0,0.152,0.152,0.457,0.267,0.951c0.152,0.647,0.267,1.37,0.267,2.284
			c0,2.699-1.333,5.175-4.035,5.747c-3.768,0.988-4.339,1.332-4.339,2.206c0,0.915,0.992,1.179,1.868,1.217
			c0.91,0.038,1.713-0.038,2.664-0.038c4.412,0.076,6.049,1.675,6.049,4.796c0,3.613-3.844,6.011-7.99,6.011
			c-2.477,0-6.014-1.065-6.014-4.491c0-1.405,0.762-2.206,1.561-2.699c0.8-0.495,1.561-0.684,1.561-0.876
			c0-0.191-0.723-0.798-1.37-1.446c-0.724-0.684-1.408-1.37-1.408-1.713c0-0.685,0.57-0.951,1.675-1.599
			c0.57-0.304,2.055-1.065,2.055-1.253c0-0.193-0.494-0.308-1.104-0.761c-1.827-1.333-2.436-3.162-2.436-5.329V145.729z
			 M293.235,164.794c1.332,0,2.436-0.379,3.194-1.102c0.799-0.724,1.256-1.751,1.256-3.008c0-2.168-1.675-2.702-4.148-2.702
			c-1.292,0-2.472,0.114-2.817,0.306c-0.986,0.532-1.405,1.902-1.405,2.854c0,2.281,1.599,3.652,3.88,3.652H293.235z
			 M293.007,151.132c1.18,0,2.284-1.33,2.284-4.758c0-3.461-1.104-5.631-2.706-5.631c-1.218,0-2.321,1.372-2.321,4.757
			c0,3.465,1.104,5.632,2.705,5.632H293.007z"/>
		<path fill="#010C03" d="M319.908,154.442c0,1.599,0.381,1.979,1.675,2.208c0.567,0.114,1.024,0.191,1.024,0.609
			c0,0.303-0.188,0.456-0.758,0.456c-0.838,0-2.094-0.153-3.467-0.153c-1.291,0-2.319,0.153-2.928,0.153
			c-0.8,0-0.99-0.153-0.99-0.456c0-0.343,0.19-0.495,0.762-0.609c1.142-0.152,1.484-0.495,1.484-2.056v-12.022
			c0-0.611-0.419-0.727-0.914-0.801c-0.418-0.076-0.875-0.154-0.875-0.609c0-0.457,0.419-0.609,0.916-0.877
			c0.454-0.262,0.873-0.646,0.911-1.558c0.076-2.701,0.608-4.72,1.561-6.127c0.951-1.332,2.321-2.017,3.92-2.017
			c1.941,0,2.966,0.57,2.966,2.055c0,0.532-0.114,1.181-0.228,1.786c-0.152,0.687-0.495,1.26-0.99,1.26
			c-0.682,0-0.989-0.953-1.253-1.865c-0.305-1.066-0.574-2.132-1.332-2.132c-0.99,0-1.563,1.446-1.563,5.785
			c0,0.797,0.041,1.52,0.041,2.167c0.038,0.612,0.19,0.723,0.532,0.723h2.513c0.454,0,0.532,0.076,0.532,0.724
			c0,0.609-0.037,0.724-0.494,0.724h-2.021c-0.872,0-1.024,0.228-1.024,0.989V154.442z"/>
		<path fill="#010C03" d="M334.023,143.294c0-1.791-0.495-2.36-1.487-2.36c-1.748,0-2.586,1.41-3.118,3.273
			c-0.267,0.835-0.724,1.484-1.257,1.903c-0.456,0.341-0.951,0.532-1.522,0.532c-0.761,0-1.065-0.269-1.065-1.028
			c0-2.244,3.235-5.746,7.879-5.746c1.446,0,2.357,0.191,2.928,0.685c0.609,0.459,0.841,1.219,0.841,2.246v11.416
			c0,0.951,0.342,1.37,0.986,1.37c0.688,0,0.989-0.343,1.142-0.721c0.19-0.384,0.27-0.764,0.533-0.764
			c0.231,0,0.305,0.191,0.305,0.649c0,0.835-1.063,3.194-3.385,3.194c-1.637,0-2.056-1.294-2.325-2.055
			c-0.111-0.305-0.225-0.533-0.415-0.533c-0.308,0-0.876,0.726-1.792,1.408c-0.838,0.684-1.977,1.296-3.499,1.296
			c-1.751,0-3.042-1.219-3.042-3.466c0-1.902,1.024-3.235,4.222-5.328c1.294-0.835,2.17-1.369,2.779-1.824
			c0.989-0.612,1.294-0.991,1.294-1.828V143.294z M329.075,153.986c0,1.409,0.723,2.13,1.789,2.13c0.799,0,1.484-0.455,2.207-1.141
			c0.683-0.684,0.952-1.18,0.952-2.13v-4.225c0-0.418-0.076-0.495-0.27-0.495c-0.188,0-0.381,0.037-0.876,0.42
			c-0.796,0.533-1.561,1.179-2.128,1.824c-1.028,1.065-1.675,2.247-1.675,3.579V153.986z"/>
		<path fill="#010C03" d="M343.498,144.207c0-1.104-0.152-1.258-1.104-1.332c-0.532-0.076-0.837-0.076-0.837-0.457
			c0-0.303,0.343-0.419,1.218-0.723c1.37-0.533,2.246-1.066,2.74-1.443c0.381-0.229,0.53-0.384,0.686-0.384
			c0.19,0,0.267,0.303,0.267,0.646v1.181c0,0.91,0.038,0.992,0.229,0.992c0.304,0,0.913-0.65,1.713-1.299
			c0.834-0.646,1.861-1.292,3.045-1.292c2.55,0,3.194,1.561,3.612,2.283c0.152,0.226,0.229,0.341,0.381,0.341
			c0.114,0,0.229-0.115,0.419-0.263c0.837-0.687,2.359-2.361,4.72-2.361c1.062,0,2.128,0.342,2.89,0.989
			c0.837,0.686,1.373,1.749,1.373,3.159v10.845c0,1.065,0.302,1.369,1.139,1.599c0.609,0.19,0.876,0.305,0.876,0.53
			c0,0.344-0.188,0.497-0.647,0.497c-0.758,0-1.862-0.153-3.121-0.153c-1.218,0-2.242,0.153-3.004,0.153
			c-0.343,0-0.686-0.076-0.686-0.456c0-0.229,0.302-0.418,0.645-0.495c1.218-0.306,1.678-0.495,1.678-2.056v-9.476
			c0-2.056-1.068-3.082-2.893-3.082c-0.8,0-1.599,0.229-2.17,0.724c-0.57,0.495-0.913,1.177-0.913,2.019v10.502
			c0,0.949,0.152,1.103,1.332,1.332c0.419,0.075,0.609,0.189,0.609,0.457c0,0.417-0.343,0.531-0.8,0.531
			c-0.533,0-1.446-0.153-2.74-0.153c-1.218,0-2.132,0.153-2.813,0.153c-0.536,0-0.688-0.153-0.688-0.456
			c0-0.189,0.152-0.457,0.46-0.532c1.215-0.269,1.481-0.344,1.481-1.904v-9.284c0-0.989-0.152-1.749-0.495-2.321
			c-0.381-0.724-1.065-1.066-1.977-1.066c-0.916,0-1.788,0.343-2.436,0.912c-0.65,0.612-1.065,1.41-1.065,2.284v10.085
			c0,0.798,0.264,1.104,1.065,1.295c0.647,0.189,0.796,0.189,0.796,0.532c0,0.342-0.301,0.456-0.644,0.456
			c-0.308,0-0.724-0.153-3.159-0.153c-1.713,0-2.021,0.153-2.475,0.153c-0.57,0-0.723-0.228-0.723-0.531
			c0-0.268,0.229-0.457,0.609-0.534c1.177-0.152,1.408-0.495,1.408-1.866V144.207z"/>
		<path fill="#010C03" d="M371.16,144.207c0-0.989-0.264-1.258-1.405-1.52c-0.381-0.082-0.53-0.229-0.53-0.458
			c0-0.307,0.302-0.458,1.215-0.76c1.219-0.384,2.132-0.879,2.894-1.218c0.342-0.229,0.605-0.384,0.723-0.384
			c0.229,0,0.305,0.155,0.305,0.57v1.827v12.484c0,1.14,0.038,1.634,1.291,1.9c0.688,0.191,0.916,0.267,0.916,0.609
			c0,0.303-0.151,0.456-0.649,0.456c-0.721,0-1.405-0.153-3.156-0.153c-1.827,0-2.55,0.153-3.159,0.153
			c-0.343,0-0.571-0.153-0.571-0.456c0-0.304,0.152-0.495,0.686-0.609c1.294-0.229,1.443-0.381,1.443-1.752V144.207z
			 M372.762,137.587c-0.951,0-1.789-0.801-1.789-2.247c0-1.482,0.838-2.283,1.827-2.283c1.024,0,1.862,0.801,1.862,2.283
			c0,1.446-0.838,2.247-1.862,2.247H372.762z"/>
		<path fill="#010C03" d="M381.019,134.503c0-0.724-0.19-0.953-1.028-1.104c-0.685-0.15-0.872-0.191-0.872-0.534
			c0-0.303,0.149-0.417,0.682-0.567c1.522-0.495,2.551-0.876,3.235-1.182c0.533-0.265,0.724-0.381,0.917-0.381
			c0.226,0,0.264,0.229,0.264,0.763v23.821c0,0.951,0.38,1.026,1.558,1.332c0.421,0.114,0.764,0.191,0.764,0.568
			c0,0.308-0.267,0.497-0.571,0.497c-0.38,0-0.796-0.153-3.311-0.153c-2.319,0-2.741,0.153-3.159,0.153
			c-0.264,0-0.606-0.114-0.606-0.497c0-0.302,0.343-0.491,0.645-0.568c1.294-0.191,1.484-0.568,1.484-1.561V134.503z"/>
		<path fill="#010C03" d="M390.873,144.207c0-0.989-0.266-1.258-1.405-1.52c-0.381-0.082-0.532-0.229-0.532-0.458
			c0-0.307,0.304-0.458,1.218-0.76c1.218-0.384,2.131-0.879,2.89-1.218c0.343-0.229,0.609-0.384,0.723-0.384
			c0.229,0,0.308,0.155,0.308,0.57v1.827v12.484c0,1.14,0.035,1.634,1.291,1.9c0.686,0.191,0.917,0.267,0.917,0.609
			c0,0.303-0.152,0.456-0.65,0.456c-0.72,0-1.405-0.153-3.156-0.153c-1.827,0-2.55,0.153-3.159,0.153
			c-0.342,0-0.57-0.153-0.57-0.456c0-0.304,0.152-0.495,0.685-0.609c1.294-0.229,1.443-0.381,1.443-1.752V144.207z M392.475,137.587
			c-0.951,0-1.789-0.801-1.789-2.247c0-1.482,0.838-2.283,1.827-2.283c1.025,0,1.862,0.801,1.862,2.283
			c0,1.446-0.837,2.247-1.862,2.247H392.475z"/>
		<path fill="#010C03" d="M407.58,143.294c0-1.791-0.495-2.36-1.487-2.36c-1.748,0-2.586,1.41-3.118,3.273
			c-0.267,0.835-0.724,1.484-1.257,1.903c-0.456,0.341-0.951,0.532-1.522,0.532c-0.761,0-1.065-0.269-1.065-1.028
			c0-2.244,3.235-5.746,7.879-5.746c1.446,0,2.356,0.191,2.928,0.685c0.609,0.459,0.841,1.219,0.841,2.246v11.416
			c0,0.951,0.342,1.37,0.986,1.37c0.688,0,0.989-0.343,1.142-0.721c0.19-0.384,0.27-0.764,0.533-0.764
			c0.231,0,0.305,0.191,0.305,0.649c0,0.835-1.063,3.194-3.385,3.194c-1.637,0-2.056-1.294-2.325-2.055
			c-0.111-0.305-0.226-0.533-0.415-0.533c-0.308,0-0.876,0.726-1.792,1.408c-0.838,0.684-1.977,1.296-3.499,1.296
			c-1.751,0-3.042-1.219-3.042-3.466c0-1.902,1.024-3.235,4.222-5.328c1.294-0.835,2.17-1.369,2.778-1.824
			c0.987-0.612,1.295-0.991,1.295-1.828V143.294z M402.632,153.986c0,1.409,0.723,2.13,1.789,2.13c0.799,0,1.484-0.455,2.207-1.141
			c0.683-0.684,0.952-1.18,0.952-2.13v-4.225c0-0.418-0.076-0.495-0.27-0.495c-0.188,0-0.381,0.037-0.876,0.42
			c-0.796,0.533-1.561,1.179-2.128,1.824c-1.028,1.065-1.675,2.247-1.675,3.579V153.986z"/>
		<path fill="#010C03" d="M417.432,134.503c0-0.724-0.188-0.953-1.024-1.104c-0.686-0.15-0.875-0.191-0.875-0.534
			c0-0.303,0.151-0.417,0.682-0.567c1.525-0.495,2.55-0.876,3.238-1.182c0.53-0.265,0.724-0.381,0.91-0.381
			c0.229,0,0.27,0.229,0.27,0.763v23.821c0,0.951,0.381,1.026,1.561,1.332c0.419,0.114,0.762,0.191,0.762,0.568
			c0,0.308-0.267,0.497-0.574,0.497c-0.378,0-0.799-0.153-3.309-0.153c-2.321,0-2.74,0.153-3.159,0.153
			c-0.267,0-0.608-0.114-0.608-0.497c0-0.302,0.342-0.491,0.646-0.568c1.294-0.191,1.481-0.568,1.481-1.561V134.503z"/>
	</g>
</g>
</svg>
